<svg width="242" height="47" viewBox="0 0 242 47" fill="none" xmlns="http://www.w3.org/2000/svg">
<rect x="-0.0012207" width="241.601" height="47" rx="23.5" fill="#8B2220"/>
<path d="M30.9924 29.3C27.0724 29.3 24.3124 26.42 24.3124 21.96C24.3124 17.72 26.9924 14.7 31.3324 14.7C34.9724 14.7 37.4724 16.86 38.0724 20.4H35.6124C35.1724 18.2 33.5524 16.86 31.3324 16.86C28.5324 16.86 26.7724 18.82 26.7724 21.96C26.7724 25.14 28.5524 27.12 31.2324 27.12C33.4124 27.12 34.8324 25.7 34.8324 23.7H30.6124V21.68H35.3924C37.1924 21.68 38.1724 22.58 38.1724 24.28V29H36.0524V24.72H36.0124C35.7324 27.52 33.8924 29.3 30.9924 29.3ZM45.3542 29.3C42.1142 29.3 39.8942 26.98 39.8942 23.74C39.8942 20.24 42.1942 18.08 45.1542 18.08C48.1542 18.08 50.1542 20.18 50.2142 23.62V24.18H42.2542C42.4142 26.04 43.5742 27.3 45.3742 27.3C46.5942 27.3 47.5142 26.7 47.8742 25.64H50.1742C49.6342 27.92 47.8542 29.3 45.3542 29.3ZM42.3542 22.52H47.7742C47.4742 21 46.5342 20.08 45.1542 20.08C43.7542 20.08 42.7142 21 42.3542 22.52ZM57.8232 29H56.4632C54.1632 29 52.9232 27.86 52.9232 25.76V20.4H51.0632V18.4H52.9232V14.78H55.2832V18.4H58.0232V20.4H55.2832V25.6C55.2832 26.5 55.7432 27 56.6232 27H57.8232V29ZM70.1865 29H68.8265C66.5265 29 65.2865 27.86 65.2865 25.76V20.4H63.4265V18.4H65.2865V14.78H67.6465V18.4H70.3865V20.4H67.6465V25.6C67.6465 26.5 68.1065 27 68.9865 27H70.1865V29ZM76.7795 29.3C73.3395 29.3 71.3395 26.88 71.3395 23.6C71.3395 20.14 73.6795 18.08 76.7795 18.08C80.1995 18.08 82.1995 20.48 82.1995 23.6C82.1995 27.18 79.9395 29.3 76.7795 29.3ZM76.7795 27.28C78.6795 27.28 79.7995 25.72 79.7995 23.6C79.7995 21.5 78.6195 20.1 76.7795 20.1C74.9395 20.1 73.7395 21.5 73.7395 23.6C73.7395 25.92 75.0395 27.28 76.7795 27.28ZM90.8034 29H88.4434V14H90.8034V23L95.3234 18.4H98.2034L94.3634 22.22L98.7234 29H95.9834L92.7234 23.86L90.8034 25.78V29ZM102.209 29H99.8487V18.4H101.749L101.949 19.96C102.609 18.86 103.949 18.08 105.529 18.08C107.789 18.08 109.269 19.6 109.269 21.98V29H106.909V22.1C106.909 20.92 106.129 20.14 104.809 20.14C103.269 20.14 102.229 21.2 102.209 22.58V29ZM116.408 29.3C112.968 29.3 110.968 26.88 110.968 23.6C110.968 20.14 113.308 18.08 116.408 18.08C119.828 18.08 121.828 20.48 121.828 23.6C121.828 27.18 119.568 29.3 116.408 29.3ZM116.408 27.28C118.308 27.28 119.428 25.72 119.428 23.6C119.428 21.5 118.248 20.1 116.408 20.1C114.568 20.1 113.368 21.5 113.368 23.6C113.368 25.92 114.668 27.28 116.408 27.28ZM128.181 29H125.701L122.561 18.4H124.981L127.121 26.08L129.221 18.4H131.181L133.301 26L135.401 18.4H137.821L134.681 29H132.241L130.201 21.76L128.181 29ZM145.998 29H143.638V18.4H145.538L145.718 19.88C146.378 18.84 147.678 18.08 149.258 18.08C150.778 18.08 151.938 18.84 152.498 20.06C153.098 18.94 154.458 18.08 156.138 18.08C158.358 18.08 159.778 19.66 159.778 21.94V29H157.398V22.06C157.398 20.88 156.678 20.12 155.538 20.12C153.918 20.12 152.898 21.18 152.878 22.58V29H150.518V22.06C150.518 20.88 149.798 20.12 148.658 20.12C147.038 20.12 146.018 21.18 145.998 22.58V29ZM166.916 29.3C163.476 29.3 161.476 26.88 161.476 23.6C161.476 20.14 163.816 18.08 166.916 18.08C170.336 18.08 172.336 20.48 172.336 23.6C172.336 27.18 170.076 29.3 166.916 29.3ZM166.916 27.28C168.816 27.28 169.936 25.72 169.936 23.6C169.936 21.5 168.756 20.1 166.916 20.1C165.076 20.1 163.876 21.5 163.876 23.6C163.876 25.92 165.176 27.28 166.916 27.28ZM176.545 29H174.185V18.4H176.085L176.365 20.48C177.045 19.04 178.285 18.28 180.045 18.28H180.445V20.58H180.045C177.845 20.58 176.545 21.76 176.545 23.76V29ZM186.604 29.3C183.364 29.3 181.144 26.98 181.144 23.74C181.144 20.24 183.444 18.08 186.404 18.08C189.404 18.08 191.404 20.18 191.464 23.62V24.18H183.504C183.664 26.04 184.824 27.3 186.624 27.3C187.844 27.3 188.764 26.7 189.124 25.64H191.424C190.884 27.92 189.104 29.3 186.604 29.3ZM183.604 22.52H189.024C188.724 21 187.784 20.08 186.404 20.08C185.004 20.08 183.964 21 183.604 22.52Z" fill="white"/>
<path d="M208.595 15.9541L215.345 22.7041C215.45 22.8086 215.533 22.9328 215.59 23.0696C215.647 23.2063 215.676 23.3529 215.676 23.501C215.676 23.649 215.647 23.7957 215.59 23.9324C215.533 24.0691 215.45 24.1933 215.345 24.2979L208.595 31.0479C208.384 31.2592 208.097 31.3779 207.798 31.3779C207.499 31.3779 207.213 31.2592 207.001 31.0479C206.79 30.8365 206.671 30.5499 206.671 30.251C206.671 29.9521 206.79 29.6654 207.001 29.4541L211.83 24.625L198.049 24.625C197.751 24.625 197.465 24.5065 197.254 24.2955C197.043 24.0846 196.924 23.7984 196.924 23.5C196.924 23.2017 197.043 22.9155 197.254 22.7045C197.465 22.4936 197.751 22.375 198.049 22.375L211.83 22.375L207 17.546C206.789 17.3346 206.67 17.048 206.67 16.7491C206.67 16.4502 206.789 16.1636 207 15.9522C207.212 15.7409 207.498 15.6221 207.797 15.6221C208.096 15.6221 208.383 15.7409 208.594 15.9522L208.595 15.9541Z" fill="white"/>
</svg>
