<svg width="189" height="44" viewBox="0 0 189 44" fill="none" xmlns="http://www.w3.org/2000/svg">
<rect x="0.5" width="188" height="44" rx="12" fill="#FFF0E3"/>
<path d="M31.3633 27.8C27.4433 27.8 24.6833 24.92 24.6833 20.46C24.6833 16.22 27.3633 13.2 31.7033 13.2C35.3433 13.2 37.8433 15.36 38.4433 18.9H35.9833C35.5433 16.7 33.9233 15.36 31.7033 15.36C28.9033 15.36 27.1433 17.32 27.1433 20.46C27.1433 23.64 28.9233 25.62 31.6033 25.62C33.7833 25.62 35.2033 24.2 35.2033 22.2H30.9833V20.18H35.7633C37.5633 20.18 38.5433 21.08 38.5433 22.78V27.5H36.4233V23.22H36.3833C36.1033 26.02 34.2633 27.8 31.3633 27.8ZM45.725 27.8C42.485 27.8 40.265 25.48 40.265 22.24C40.265 18.74 42.565 16.58 45.525 16.58C48.525 16.58 50.525 18.68 50.585 22.12V22.68H42.625C42.785 24.54 43.945 25.8 45.745 25.8C46.965 25.8 47.885 25.2 48.245 24.14H50.545C50.005 26.42 48.225 27.8 45.725 27.8ZM42.725 21.02H48.145C47.845 19.5 46.905 18.58 45.525 18.58C44.125 18.58 43.085 19.5 42.725 21.02ZM58.1941 27.5H56.8341C54.5341 27.5 53.2941 26.36 53.2941 24.26V18.9H51.4341V16.9H53.2941V13.28H55.6541V16.9H58.3941V18.9H55.6541V24.1C55.6541 25 56.1141 25.5 56.9941 25.5H58.1941V27.5ZM65.6573 15.48C64.7973 15.48 64.1373 14.8 64.1373 13.94C64.1373 13.08 64.7973 12.42 65.6573 12.42C66.5373 12.42 67.1773 13.08 67.1773 13.94C67.1773 14.8 66.5373 15.48 65.6573 15.48ZM66.8373 27.5H64.4773V16.9H66.8373V27.5ZM71.603 27.5H69.243V16.9H71.143L71.343 18.46C72.003 17.36 73.343 16.58 74.923 16.58C77.183 16.58 78.663 18.1 78.663 20.48V27.5H76.303V20.6C76.303 19.42 75.523 18.64 74.203 18.64C72.663 18.64 71.623 19.7 71.603 21.08V27.5ZM91.3581 27.5H89.9981C87.6981 27.5 86.4581 26.36 86.4581 24.26V18.9H84.5981V16.9H86.4581V13.28H88.8181V16.9H91.5581V18.9H88.8181V24.1C88.8181 25 89.2781 25.5 90.1581 25.5H91.3581V27.5ZM97.9511 27.8C94.5111 27.8 92.5111 25.38 92.5111 22.1C92.5111 18.64 94.8511 16.58 97.9511 16.58C101.371 16.58 103.371 18.98 103.371 22.1C103.371 25.68 101.111 27.8 97.9511 27.8ZM97.9511 25.78C99.8511 25.78 100.971 24.22 100.971 22.1C100.971 20 99.7911 18.6 97.9511 18.6C96.1111 18.6 94.9111 20 94.9111 22.1C94.9111 24.42 96.2111 25.78 97.9511 25.78ZM109.02 27.8C106.5 27.8 105.04 26.22 105.04 23.92V16.9H107.4V23.82C107.4 25.02 108.24 25.72 109.5 25.72C111.12 25.72 112.08 24.66 112.1 23.3V16.9H114.46V27.5H112.56L112.38 25.96C111.76 27.1 110.5 27.8 109.02 27.8ZM121.78 27.8C118.32 27.8 116.3 25.32 116.3 22.12C116.3 18.64 118.64 16.58 121.72 16.58C124.62 16.58 126.58 18.36 126.78 21H124.46C124.24 19.54 123.2 18.6 121.7 18.6C119.9 18.6 118.7 19.96 118.7 22.12C118.7 24.44 120.02 25.78 121.78 25.78C123.22 25.78 124.22 24.86 124.46 23.34H126.78C126.5 26.08 124.6 27.8 121.78 27.8ZM131.018 27.5H128.658V12.5H131.018V18.04C131.738 17.16 132.958 16.58 134.338 16.58C136.598 16.58 138.078 18.1 138.078 20.48V27.5H135.718V20.6C135.718 19.42 134.938 18.64 133.678 18.64C132.078 18.64 131.038 19.7 131.018 21.08V27.5Z" fill="#4F1105"/>
<path d="M155.796 14.4541L162.546 21.2041C162.651 21.3086 162.734 21.4328 162.791 21.5696C162.848 21.7063 162.877 21.8529 162.877 22.001C162.877 22.149 162.848 22.2957 162.791 22.4324C162.734 22.5691 162.651 22.6933 162.546 22.7979L155.796 29.5479C155.585 29.7592 155.298 29.8779 154.999 29.8779C154.7 29.8779 154.414 29.7592 154.202 29.5479C153.991 29.3365 153.872 29.0499 153.872 28.751C153.872 28.4521 153.991 28.1654 154.202 27.9541L159.031 23.125L145.25 23.125C144.952 23.125 144.665 23.0065 144.455 22.7955C144.244 22.5846 144.125 22.2984 144.125 22C144.125 21.7017 144.244 21.4155 144.455 21.2045C144.665 20.9936 144.952 20.875 145.25 20.875L159.031 20.875L154.201 16.046C153.99 15.8346 153.871 15.548 153.871 15.2491C153.871 14.9502 153.99 14.6636 154.201 14.4522C154.413 14.2409 154.699 14.1221 154.998 14.1221C155.297 14.1221 155.584 14.2409 155.795 14.4522L155.796 14.4541Z" fill="#4F1105"/>
</svg>
